<svg width="22" height="24" viewBox="0 0 22 24" fill="none" xmlns="http://www.w3.org/2000/svg">
<path d="M12 1C12 0.447715 11.5523 -2.41411e-08 11 0C10.4477 2.41411e-08 10 0.447715 10 1L12 1ZM10.2929 17.7071C10.6834 18.0976 11.3166 18.0976 11.7071 17.7071L18.0711 11.3431C18.4616 10.9526 18.4616 10.3195 18.0711 9.92893C17.6805 9.53841 17.0474 9.53841 16.6569 9.92893L11 15.5858L5.34315 9.92893C4.95262 9.53841 4.31946 9.53841 3.92893 9.92893C3.53841 10.3195 3.53841 10.9526 3.92893 11.3431L10.2929 17.7071ZM10 1L10 17L12 17L12 1L10 1Z" fill="white"/>
<path d="M1 17V23H21V17" stroke="white" stroke-width="2" stroke-linecap="round" stroke-linejoin="round"/>
</svg>
