<svg width="12" height="16" viewBox="0 0 12 16" fill="none" xmlns="http://www.w3.org/2000/svg">
<path d="M11.7415 5.67883L10.5364 4.79013L10.581 4.72967C10.7814 4.45762 10.7236 4.07459 10.4516 3.87402L9.24681 2.98541L9.34399 2.85346C9.54456 2.58141 9.48655 2.19831 9.2145 1.99774L7.51683 0.74609C7.38619 0.649721 7.22291 0.609085 7.06216 0.633565C6.90166 0.657799 6.75747 0.744866 6.6611 0.875506L6.56376 1.00761L5.35887 0.11941C5.08698 -0.0810789 4.70379 -0.0232252 4.50314 0.248826L3.04619 2.22466L2.62481 1.99929C2.47328 1.91826 2.29458 1.90463 2.13261 1.96183C1.97055 2.01903 1.83999 2.14168 1.77284 2.29981L0.0486526 6.36197C-0.0328648 6.55406 -0.0109147 6.77429 0.106751 6.94655L3.26659 11.5684L2.765 15.2982C2.71996 15.6332 2.95504 15.9412 3.29001 15.9863C3.31767 15.99 3.34517 15.9919 3.37234 15.9919C3.67409 15.9919 3.93676 15.7687 3.97813 15.4614L4.51097 11.4986C4.53113 11.3486 4.49506 11.1965 4.40963 11.0717L1.30617 6.53211L2.63803 3.39438L6.07106 5.23044L5.63753 5.81852L4.43231 4.92999C4.16026 4.72942 3.77715 4.78728 3.57658 5.05941C3.37601 5.33146 3.43395 5.71457 3.706 5.91514L5.40383 7.16687C5.40383 7.16695 5.40391 7.16695 5.40399 7.16695L7.101 8.41843C7.10108 8.41851 7.10117 8.41851 7.10125 8.41859L8.79908 9.66999C8.90842 9.75061 9.03555 9.78937 9.1617 9.78937C9.26289 9.78937 9.36309 9.76351 9.45301 9.71487L9.37027 10.3997L8.19606 11.6735C8.08419 11.7949 8.02601 11.9564 8.0349 12.1213L8.2132 15.4211C8.23082 15.7474 8.50083 16.0001 8.82372 16C8.8349 16 8.846 15.9998 8.85726 15.9991C9.19483 15.9809 9.45366 15.6925 9.43539 15.355L9.27104 12.3131L10.404 11.0839C10.491 10.9895 10.5462 10.8701 10.5617 10.7426L10.9134 7.8332L11.8708 6.53447C12.0714 6.2625 12.0135 5.8794 11.7415 5.67883ZM5.12509 1.46775L5.83736 1.99284L4.92558 3.2298L4.13684 2.80801L5.12509 1.46775ZM6.01623 3.81307L7.28321 2.09443L7.99565 2.61976L6.80496 4.23493L6.01623 3.81307ZM7.52809 5.31685C7.52809 5.31685 7.52817 5.31685 7.52809 5.31685L7.61875 5.19388L8.52058 3.97063L9.23278 4.49589L9.19091 4.55268C9.18994 4.5539 9.18888 4.55505 9.18798 4.55627L7.33495 7.07009L6.62267 6.54492L7.52809 5.31685ZM9.0327 8.32165L8.32017 7.79648L9.81009 5.77536L10.5225 6.30069L9.82616 7.24528L9.82608 7.24544L9.0327 8.32165Z" fill="#5D9AC5"/>
</svg>
