<svg width="24" height="22" viewBox="0 0 24 22" fill="none" xmlns="http://www.w3.org/2000/svg">
<path d="M22.5617 9.93247C23.0746 9.43239 23.2558 8.69856 23.0344 8.01722C22.813 7.33588 22.2351 6.84866 21.5262 6.74562L16.117 5.95961C16.1071 5.95818 16.0986 5.95195 16.0942 5.94306L13.6753 1.04162C13.3584 0.399186 12.7163 0 11.9999 0C11.2834 0 10.6415 0.399186 10.3245 1.04162L7.90547 5.94306C7.90108 5.95195 7.8926 5.95808 7.8827 5.95961L2.47361 6.74562C1.7647 6.84866 1.1868 7.33588 0.965408 8.01722C0.744012 8.69856 0.925173 9.43239 1.43812 9.93247L5.35217 13.7478C5.35931 13.7547 5.36258 13.7647 5.36085 13.7745L4.43687 19.1619C4.31575 19.8679 4.60067 20.5681 5.1802 20.9892C5.75983 21.4104 6.51378 21.4648 7.14784 21.1314L11.9859 18.5879C11.9946 18.5832 12.0053 18.5833 12.0141 18.5879L16.8521 21.1314C17.1279 21.2764 17.4263 21.348 17.7233 21.348C18.109 21.348 18.4922 21.2271 18.8196 20.9892C19.3991 20.5681 19.684 19.8679 19.5629 19.1618L18.639 13.7745C18.6372 13.7647 18.6406 13.7547 18.6476 13.7478L22.5617 9.93247ZM16.8272 14.0852L17.7511 19.4724C17.7536 19.4867 17.7543 19.491 17.7391 19.502C17.7239 19.513 17.72 19.511 17.7072 19.5043L12.8691 16.9607C12.3248 16.6746 11.6748 16.6746 11.1303 16.9607L6.29228 19.5042C6.27952 19.5108 6.27564 19.5129 6.26042 19.5019C6.2452 19.4909 6.24592 19.4866 6.24837 19.4724L7.17235 14.0851C7.27631 13.4789 7.07544 12.8608 6.635 12.4313L2.72115 8.61615C2.71084 8.60604 2.70767 8.60308 2.71349 8.58521C2.71931 8.56734 2.7236 8.56672 2.7379 8.56458L8.14698 7.77856C8.75572 7.69013 9.28163 7.3081 9.55378 6.75655L11.9728 1.85501C11.9792 1.84214 11.9811 1.83816 11.9999 1.83816C12.0186 1.83816 12.0206 1.84214 12.0269 1.85501L14.4459 6.75655C14.7182 7.3081 15.244 7.69023 15.8527 7.77856L21.2618 8.56458C21.2761 8.56672 21.2804 8.56734 21.2862 8.58521C21.292 8.60308 21.2889 8.60614 21.2786 8.61615L17.3645 12.4314C16.9242 12.8608 16.7233 13.479 16.8272 14.0852Z" fill="#5D9AC5"/>
</svg>
