<svg width="14" height="16" viewBox="0 0 14 16" fill="none" xmlns="http://www.w3.org/2000/svg">
<path d="M13.5938 7.67433C13.5938 4.57121 11.4969 1.86496 8.49063 1.09308C8.20313 1.01808 7.90938 1.19308 7.8375 1.48058C7.7625 1.76808 7.9375 2.06183 8.225 2.13371C10.7531 2.78058 12.5188 5.06183 12.5188 7.67433C12.5188 9.97746 11.1469 12.0181 9.09376 12.915L9.59063 11.7587C9.70625 11.4868 9.58125 11.1712 9.30938 11.0525C9.0375 10.9368 8.72188 11.0618 8.60313 11.3337L7.63438 13.59C7.51875 13.8618 7.64375 14.1775 7.91563 14.2962L10.1719 15.265C10.5094 15.3837 10.7906 15.1868 10.8781 14.9837C10.9938 14.7118 10.8688 14.3962 10.5969 14.2775L9.61563 13.8556C12.0063 12.7743 13.5938 10.3743 13.5938 7.67433V7.67433Z" fill="#5D9AC5"/>
<path d="M5.36875 13.2149C2.84062 12.5649 1.075 10.2868 1.075 7.67432C1.075 5.40245 2.40937 3.38682 4.41562 2.4712L3.95 3.55245C3.83438 3.82432 3.95312 4.15245 4.23125 4.2587C4.55625 4.38057 4.83125 4.2337 4.9375 3.97745L5.90625 1.71807C6 1.49932 5.99687 1.1712 5.625 1.01182L3.36875 0.0430712C3.09687 -0.0725539 2.78125 0.0524462 2.6625 0.324321C2.54688 0.596196 2.67188 0.911821 2.94375 1.03057L3.99375 1.48057C1.59375 2.56495 0 4.96807 0 7.67432C0 10.7774 2.1 13.4806 5.10312 14.2556C5.46562 14.3493 5.69375 14.1118 5.75625 13.8681C5.82813 13.5806 5.65625 13.2899 5.36875 13.2149V13.2149Z" fill="#5D9AC5"/>
<path d="M8.06248 9.69933C8.33748 9.41183 8.47498 9.04933 8.47498 8.61808C8.47498 8.42121 8.4406 8.23996 8.37498 8.07121C8.30935 7.90246 8.2156 7.75871 8.09373 7.63371C7.97185 7.51183 7.81248 7.40871 7.61873 7.32121C7.5156 7.27746 7.30935 7.21496 6.99373 7.13683V5.34308C7.19685 5.38371 7.35623 5.47121 7.47498 5.60246C7.5906 5.73371 7.66873 5.92121 7.70623 6.16496L8.34998 6.06808C8.29373 5.67433 8.13123 5.36183 7.85935 5.13683C7.64685 4.95871 7.35935 4.85246 6.99685 4.81808V4.52121H6.6281V4.81808C6.2156 4.85871 5.9031 4.97433 5.69373 5.15871C5.3781 5.43371 5.22185 5.79309 5.22185 6.23684C5.22185 6.48684 5.27498 6.70871 5.38435 6.90558C5.4906 7.10246 5.64373 7.25558 5.84373 7.36496C6.11248 7.51496 6.37498 7.61496 6.63123 7.66184V9.64621C6.38748 9.62121 6.17498 9.49621 5.99998 9.27433C5.8781 9.11808 5.7906 8.87121 5.74373 8.53684L5.1156 8.65558C5.13748 8.97746 5.22185 9.25246 5.36248 9.47746C5.5031 9.70246 5.67185 9.86496 5.86873 9.96496C6.06248 10.065 6.31873 10.1337 6.6281 10.1743V10.7962H6.99685V10.165C7.43435 10.1431 7.7906 9.98683 8.06248 9.69933ZM6.63123 7.05871C6.34685 6.97433 6.14685 6.85871 6.0281 6.71496C5.90935 6.57121 5.84998 6.39308 5.84998 6.18058C5.84998 5.96496 5.91873 5.78058 6.05935 5.62433C6.19998 5.46808 6.3906 5.37121 6.63123 5.33371V7.05871ZM7.59685 9.32746C7.43748 9.50871 7.23748 9.61184 6.99685 9.64309V7.74621C7.33123 7.85558 7.55623 7.97746 7.66873 8.11496C7.78123 8.25246 7.83748 8.43371 7.83748 8.66184C7.83435 8.92434 7.75623 9.14933 7.59685 9.32746V9.32746Z" fill="#5D9AC5"/>
</svg>
