<?xml version="1.0" encoding="utf-8"?>
<!-- Generator: Adobe Illustrator 26.5.0, SVG Export Plug-In . SVG Version: 6.00 Build 0)  -->
<svg version="1.1" id="Capa_1" xmlns="http://www.w3.org/2000/svg" xmlns:xlink="http://www.w3.org/1999/xlink" x="0px" y="0px"
	 viewBox="0 0 480 480" style="enable-background:new 0 0 480 480;" xml:space="preserve">
<style type="text/css">
	.st0{fill:#B5B5B5;}
</style>
<g>
	<path class="st0" d="M464.5,199.4c-0.1-0.2-12-24.1-26.4-49.4c-30-52.8-41.5-60.7-45.3-63.2c-19.2-13.1-50.9-27.1-60-31l-26.9-34.9
		l0-0.1l-2.7-3.3C300.9,14.4,286.8,0,240,0s-60.9,14.4-63.2,17.2l-2.7,3.3l0,0.1l-26.9,34.9c-9.1,3.9-40.8,18-60,31
		c-3.8,2.6-15.4,10.5-45.3,63.3c-14.4,25.3-26.3,49.2-26.4,49.4l-1.9,3.9l1.5,4.1c0.6,1.6,15.3,39.4,79.9,48.1l5.8,0.8l20-26.6
		c6.3,86.5-8.8,183.3-20.4,226l-2.4,8.8l8.6,3.2C107.8,468.1,141,480,240,480c99,0,132.2-11.9,133.6-12.4l8.6-3.2l-2.4-8.8
		c-9.4-34.5-20.2-101.2-21.8-166.4c-0.4-18.3-0.2-38.7,1.3-59.6l19.9,26.6l5.8-0.8c64.6-8.6,79.3-46.4,79.9-48.1l1.5-4.1
		L464.5,199.4z M316,66.6l-9.5,69.7l-32-40.2c13.9-13.5,21.9-33.9,26.2-49.4L316,66.6z M240,20c26,0,39,4.9,44.5,7.9
		c-3.2,16.4-15,62.8-44.5,62.8c-14.4,0-26.3-10.8-35.4-32.1c-5.1-11.8-7.9-23.9-9.2-30.7C200.8,25,213.9,20,240,20z M179.3,46.7
		c4.4,15.5,12.4,35.9,26.2,49.4l-32,40.2L164,66.6L179.3,46.7z M91.9,234.6c-37.1-6.4-51.6-23.4-56.2-30.9
		c15.2-30.2,39.7-74.2,55.2-92.9c12.9,23.1,21.9,53.1,26.9,89.4L91.9,234.6z M139.4,213.8c-4.8-47.7-15.9-86.5-32.9-115.7
		c12.6-7.5,28.3-14.9,38.8-19.8L160,185.3l62.2-78c2.5,1,5,1.8,7.7,2.3V460c-56.1-0.5-91.2-5.1-108-8.8
		C134.2,400.6,148.2,300.3,139.4,213.8z M358,451.2c-16.8,3.7-51.9,8.3-108,8.8V109.6c2.7-0.6,5.3-1.4,7.7-2.3l62.2,78l14.6-106.9
		c10.6,4.8,26.3,12.3,38.9,19.8c-31.6,54.4-36.9,133.4-35.5,191.5C339.6,358.6,350.4,419.5,358,451.2z M388.1,234.6l-25.8-34.3
		c4.4-32.2,12.6-63.9,26.8-89.5c15.4,18.7,39.9,62.7,55.2,92.9C439.7,211.2,425.2,228.3,388.1,234.6z"/>
	<rect x="164.3" y="222.7" class="st0" width="44.3" height="20"/>
	<path class="st0" d="M280,220c-6,0-10.8,4.8-10.8,10.8c0,6,4.8,10.8,10.8,10.8c6,0,10.8-4.8,10.8-10.8C290.8,224.8,286,220,280,220
		z"/>
	<path class="st0" d="M280,284.9c-6,0-10.8,4.8-10.8,10.8c0,6,4.8,10.8,10.8,10.8c6,0,10.8-4.8,10.8-10.8
		C290.8,289.7,286,284.9,280,284.9z"/>
	<path class="st0" d="M280,349.8c-6,0-10.8,4.8-10.8,10.8s4.8,10.8,10.8,10.8c6,0,10.8-4.8,10.8-10.8S286,349.8,280,349.8z"/>
</g>
</svg>
