<?xml version="1.0" encoding="utf-8"?>
<!-- Generator: Adobe Illustrator 26.5.0, SVG Export Plug-In . SVG Version: 6.00 Build 0)  -->
<svg version="1.1" id="Layer_1" xmlns="http://www.w3.org/2000/svg" xmlns:xlink="http://www.w3.org/1999/xlink" x="0px" y="0px"
	 viewBox="0 0 512 512" style="enable-background:new 0 0 512 512;" xml:space="preserve">
<style type="text/css">
	.st0{fill:#B5B5B5;}
</style>
<g>
	<g>
		<path class="st0" d="M156.7,347.5H152c-5.8,0-10.4,4.7-10.4,10.4s4.7,10.4,10.4,10.4h4.7c5.8,0,10.4-4.7,10.4-10.4
			C167.2,352.2,162.5,347.5,156.7,347.5z"/>
	</g>
</g>
<g>
	<g>
		<path class="st0" d="M182.1,190.2c-4.1-4.1-10.7-4.1-14.8,0l-3.5,3.5c-4.1,4.1-4.1,10.7,0,14.8c2,2,4.7,3.1,7.4,3.1
			c2.7,0,5.4-1,7.4-3.1l3.5-3.5C186.2,200.9,186.2,194.3,182.1,190.2z"/>
	</g>
</g>
<g>
	<g>
		<path class="st0" d="M210.9,218.9c-4.1-4.1-10.7-4.1-14.8,0l-3.5,3.5c-4.1,4.1-4.1,10.7,0,14.8c2,2,4.7,3.1,7.4,3.1s5.4-1,7.4-3.1
			l3.5-3.5C215,229.5,215,222.9,210.9,218.9z"/>
	</g>
</g>
<g>
	<g>
		<path class="st0" d="M244.9,246.9c-4.1-4.1-10.7-4.1-14.8,0l-3.5,3.5c-4.1,4.1-4.1,10.7,0,14.8c2,2,4.7,3.1,7.4,3.1s5.3-1,7.4-3.1
			l3.5-3.5C249,257.6,249,251,244.9,246.9z"/>
	</g>
</g>
<g>
	<g>
		<path class="st0" d="M493.9,298.6c-15.5-19.1-39.2-33-68.8-40.1c-15.6-3.7-30-7.9-43.5-12.4c-0.2-0.1-0.4-0.1-0.6-0.2
			c-59-19.8-98.1-46-125.8-70.8c-0.1-0.1-0.2-0.2-0.3-0.3c-0.4-0.4-0.7-0.7-1.1-1C235.3,157.1,222,141,211.2,128
			c-1.8-2.1-3.5-4.2-5.1-6.1c-1.8-2.1-4.4-3.5-7.1-3.7c-2.8-0.2-5.5,0.7-7.7,2.5c-24.5,21-55.8,32.5-88.1,32.5
			c-31.4,0-62-11-86.2-30.9c-3.1-2.6-7.4-3.1-11.1-1.4c-3.7,1.7-6,5.4-6,9.4v202.2v50.8c0,5.8,4.7,10.4,10.4,10.4h185.7
			c5.8,0,10.4-4.7,10.4-10.4v-32.8c27.9,15.1,87.4,43.3,142.5,43.3h120.1c22.5,0,39.6-16.1,42.4-40.2
			C513.8,335.3,507.3,315.2,493.9,298.6z M185.7,372.9H20.9v-4.5h97.3c5.8,0,10.4-4.7,10.4-10.4s-4.7-10.4-10.4-10.4H20.9V343h164.8
			V372.9z M20.9,322.1v-96.8c51.1,4.9,91.9,45.7,96.8,96.8H20.9z M201.6,323.7c-1.6-1-3.6-1.6-5.5-1.6h-57.4
			c-5.1-62.6-55.2-112.8-117.8-117.8v-53.6c24.6,15.2,53.2,23.4,82.4,23.4c33.7,0,66.5-10.9,93.4-30.9c2.5,3.1,5.2,6.3,8.1,9.6
			l-12.1,12.1c-4.1,4.1-4.1,10.7,0,14.8c2,2,4.7,3.1,7.4,3.1s5.3-1,7.4-3.1l11.2-11.2c4.2,4.6,8.8,9.2,13.8,14l-11.1,11.1
			c-4.1,4.1-4.1,10.7,0,14.8c2,2,4.7,3.1,7.4,3.1c2.7,0,5.3-1,7.4-3.1l11.8-11.8c5.6,4.7,11.6,9.5,18.1,14.3l-10.8,10.8
			c-4.1,4.1-4.1,10.7,0,14.8c2,2,4.7,3.1,7.4,3.1s5.3-1,7.4-3.1l13.5-13.5c23.1,14.8,48.9,27.5,77.2,38
			c-23.8,32-38.6,69.3-43.4,108.9C259.1,359.1,202.3,324.1,201.6,323.7z M490.8,351.2c-0.6,5.1-4,21.7-21.7,21.7H349.1
			c-3.6,0-7.2-0.1-10.9-0.4c4.5-38.3,19.4-74.1,43.5-104.4c12.4,4,25.3,7.6,38.6,10.8c25,6,44.8,17.4,57.4,32.9
			C487.5,324,492.3,338.4,490.8,351.2z"/>
	</g>
</g>
</svg>
