<?xml version="1.0" encoding="utf-8"?>
<!-- Generator: Adobe Illustrator 26.5.0, SVG Export Plug-In . SVG Version: 6.00 Build 0)  -->
<svg version="1.1" id="Layer_1" xmlns="http://www.w3.org/2000/svg" xmlns:xlink="http://www.w3.org/1999/xlink" x="0px" y="0px"
	 viewBox="0 0 512 512" style="enable-background:new 0 0 512 512;" xml:space="preserve">
<style type="text/css">
	.st0{fill:#B5B5B5;}
</style>
<g>
	<g>
		<g>
			<path class="st0" d="M412.4,145.3c-2.4-4.6-6.7-7.8-11.6-8.9c-23-14.4-53.6-8.4-69.4,14.1L318,169.7V60.4
				c0-18.6-14.3-33.6-32.5-34.2c-5.1-0.2-10,0.8-14.5,2.7C268.6,12.6,254.6,0,237.6,0c-16.9,0-31,12.6-33.4,28.9
				c-4.1-1.8-8.6-2.7-13.3-2.7c-18.6,0-33.7,15.1-33.7,33.7v1.6c-4-1.7-8.4-2.6-13-2.6c-18.6,0-33.7,15.1-33.7,33.7l-0.5,141.4
				c-0.1,39.9,6.2,65.8,19.5,104.4v80.2l-31.2,79.3c-1.3,3.2-0.9,6.8,1.1,9.6c1.9,2.8,5.1,4.5,8.6,4.5h235.1c3.4,0,6.6-1.7,8.6-4.5
				c1.9-2.8,2.3-6.4,1.1-9.6l-31.2-79.3v-80.2c3-7.3,11.8-29.1,14.6-41.9c5.5-25.4,13.9-45.9,25.7-62.8l49.4-70.5
				C414.9,157.9,415.4,151,412.4,145.3z M327.9,491.3H123.3l24.1-61.2h23.8c-0.7,2.3-6.1,18.8-8.1,28c-1.2,5.6,2.3,11.1,7.9,12.4
				c0.8,0.2,1.5,0.2,2.2,0.2c4.8,0,9.1-3.3,10.1-8.1c1.8-8.2,8.1-27.4,9.5-32.5h22.5v30.3c0,5.7,4.6,10.4,10.4,10.4
				c5.7,0,10.4-4.6,10.4-10.4v-30.3h22.5c1.4,5,7.7,24.3,9.5,32.5c1.1,4.8,5.4,8.1,10.1,8.1c0.7,0,1.5-0.1,2.2-0.2
				c5.6-1.2,9.1-6.8,7.9-12.4c-2-9.2-7.4-25.7-8.1-28h23.8L327.9,491.3z M243.7,388.6h57.1v20.7H150.4v-62.2h150.4v20.7h-57.1
				c-5.7,0-10.4,4.6-10.4,10.4C233.3,383.9,238,388.6,243.7,388.6z M344.8,221.8c-13.4,19.2-22.9,42.1-29,70.3
				c-2,9.3-8.3,25.4-11.8,34.3H147.5c-11.6-34.2-16.7-56.9-16.6-92.4l0.5-141.5c0-7.1,5.8-13,13-13c7.1,0,13,5.8,13,13v103.7
				c0,5.7,4.6,10.4,10.4,10.4c5.7,0,10.4-4.6,10.4-10.4V59.8c0-7.2,5.8-13,13-13c7.1,0,13,5.8,13,13v126c0,5.7,4.6,10.4,10.4,10.4
				c5.7,0,10.4-4.6,10.4-10.4V33.7c0-7.1,5.8-13,13-13c7.1,0,13,5.8,13,13v141.8c0,5.7,4.6,10.4,10.4,10.4c5.7,0,10.4-4.6,10.4-10.4
				V59.8c0-3.5,1.4-6.9,4-9.3c2.6-2.5,5.9-3.7,9.5-3.6c6.9,0.2,12.5,6.3,12.5,13.5v142.2c0,4.5,2.9,8.5,7.3,9.9
				c4.3,1.4,9-0.2,11.6-3.9l32.3-46.1c4.7-6.7,11.7-11.2,19.8-12.6c8.1-1.4,16.2,0.4,22.9,5.1c0.1,0.1,0.3,0.2,0.4,0.3L344.8,221.8z
				"/>
			<path class="st0" d="M208.4,367.8h-2.1c-5.7,0-10.4,4.6-10.4,10.4c0,5.7,4.6,10.4,10.4,10.4h2.1c5.7,0,10.4-4.6,10.4-10.4
				C218.8,372.5,214.2,367.8,208.4,367.8z"/>
		</g>
	</g>
</g>
</svg>
