<?xml version="1.0" encoding="utf-8"?>
<!-- Generator: Adobe Illustrator 26.5.0, SVG Export Plug-In . SVG Version: 6.00 Build 0)  -->
<svg version="1.1" id="Capa_1" xmlns="http://www.w3.org/2000/svg" xmlns:xlink="http://www.w3.org/1999/xlink" x="0px" y="0px"
	 viewBox="0 0 380 380" style="enable-background:new 0 0 380 380;" xml:space="preserve">
<style type="text/css">
	.st0{fill:#B5B5B5;}
</style>
<path id="XMLID_25_" class="st0" d="M380,132.1c0-22.1-17.9-40-40-40s-40,17.9-40,40c0,5.9,1.3,11.5,3.6,16.5
	c-8.4,5-18,7.7-27.9,7.7c-27,0-49.6-19.8-53.6-46C233,101.2,240,87.5,240,72.1c0-27.6-22.4-50-50-50s-50,22.4-50,50
	c0,15.4,7,29.1,17.9,38.3c-4,26.2-26.6,46-53.6,46c-9.9,0-19.5-2.7-27.9-7.7c2.3-5,3.6-10.6,3.6-16.5c0-22.1-17.9-40-40-40
	S0,110,0,132.1c0,18.9,13.1,34.7,30.7,38.9l28.5,99.6c0.3,1.2,0.8,2.3,1.4,3.3c-0.3,1.3-0.5,2.6-0.5,4v64.2
	c0,8.7,7.1,15.8,15.8,15.8h228.3c8.7,0,15.8-7.1,15.8-15.8v-64.2c0-1.4-0.2-2.7-0.5-4c0.6-1,1-2.1,1.4-3.3l28.5-99.6
	C366.9,166.8,380,150.9,380,132.1z M190,42.1c16.5,0,30,13.5,30,30c0,10.7-5.6,20.1-14.1,25.4c-0.5,0.3-1,0.6-1.5,0.9
	c0,0-0.1,0.1-0.1,0.1c-0.5,0.3-1.1,0.6-1.7,0.8c-0.2,0.1-0.3,0.1-0.5,0.2c-0.5,0.2-1,0.5-1.6,0.7c-0.1,0-0.1,0-0.2,0.1
	c-0.6,0.2-1.2,0.4-1.8,0.6c-0.1,0-0.3,0.1-0.4,0.1c-0.5,0.2-1.1,0.3-1.6,0.4c-0.1,0-0.2,0.1-0.3,0.1c-0.6,0.1-1.3,0.2-1.9,0.3
	c-0.1,0-0.2,0-0.3,0c-0.5,0.1-1.1,0.1-1.6,0.2c-0.2,0-0.3,0-0.5,0c-0.6,0-1.3,0.1-1.9,0.1s-1.3,0-1.9-0.1c-0.2,0-0.3,0-0.5,0
	c-0.5,0-1.1-0.1-1.6-0.2c-0.1,0-0.2,0-0.3,0c-0.6-0.1-1.3-0.2-1.9-0.3c-0.1,0-0.2,0-0.3-0.1c-0.5-0.1-1.1-0.3-1.6-0.4
	c-0.1,0-0.3-0.1-0.4-0.1c-0.6-0.2-1.2-0.4-1.8-0.6c-0.1,0-0.1,0-0.2-0.1c-0.5-0.2-1.1-0.4-1.6-0.7c-0.2-0.1-0.3-0.1-0.5-0.2
	c-0.6-0.3-1.1-0.5-1.7-0.8c0,0-0.1-0.1-0.1-0.1c-0.5-0.3-1-0.6-1.5-0.9c-8.5-5.3-14.1-14.7-14.1-25.4C160,55.5,173.5,42.1,190,42.1z
	 M40,112.1c11,0,20,9,20,20c0,5.5-2.2,10.5-5.8,14.1c0,0,0,0,0,0c-0.4,0.4-0.9,0.9-1.4,1.3c0,0,0,0,0,0c-1.4,1.2-3.1,2.2-4.8,2.9
	c-0.1,0-0.1,0.1-0.2,0.1c-0.5,0.2-1.1,0.4-1.6,0.6c-0.1,0-0.2,0.1-0.3,0.1c-0.5,0.2-1.1,0.3-1.7,0.4c-0.1,0-0.2,0-0.3,0.1
	c-0.6,0.1-1.2,0.2-1.7,0.3c-0.1,0-0.1,0-0.2,0c-0.6,0.1-1.3,0.1-1.9,0.1c-11,0-20-9-20-20S29,112.1,40,112.1z M300,337.9H80v-55.8
	h220V337.9z M302.5,262.1H77.5l-26.2-91.6c0.1,0,0.2-0.1,0.3-0.1c0.2-0.1,0.3-0.1,0.5-0.2c0.5-0.1,0.9-0.3,1.4-0.5
	c0.1,0,0.3-0.1,0.4-0.1c0.5-0.2,1-0.4,1.5-0.6c0.1,0,0.1-0.1,0.2-0.1c2.9-1.2,5.6-2.8,8.1-4.6c12,7.8,26.1,12.1,40.6,12.1
	c34.6,0,63.9-23.8,72.1-56.2c0.2,0.1,0.5,0.1,0.7,0.2c0.3,0.1,0.5,0.1,0.8,0.2c0.6,0.1,1.2,0.3,1.8,0.4c0.4,0.1,0.8,0.2,1.3,0.2
	c0.3,0,0.5,0.1,0.8,0.1c0.5,0.1,0.9,0.2,1.4,0.2c0,0,0.1,0,0.1,0c2.2,0.3,4.5,0.5,6.8,0.5s4.6-0.2,6.8-0.5c0,0,0.1,0,0.1,0
	c0.5-0.1,1-0.1,1.4-0.2c0.3,0,0.5-0.1,0.8-0.1c0.4-0.1,0.8-0.2,1.3-0.2c0.6-0.1,1.2-0.3,1.8-0.4c0.3-0.1,0.5-0.1,0.8-0.2
	c0.2-0.1,0.5-0.1,0.7-0.2c8.1,32.4,37.5,56.2,72.1,56.2c14.4,0,28.6-4.2,40.6-12.1c2.5,1.9,5.2,3.4,8.1,4.6c0.1,0,0.1,0.1,0.2,0.1
	c0.5,0.2,1,0.4,1.5,0.6c0.1,0,0.3,0.1,0.4,0.1c0.4,0.2,0.9,0.3,1.4,0.5c0.2,0.1,0.3,0.1,0.5,0.2c0.1,0,0.2,0.1,0.3,0.1L302.5,262.1z
	 M340,152.1c-0.6,0-1.3,0-1.9-0.1c-0.1,0-0.1,0-0.2,0c-0.6-0.1-1.2-0.2-1.7-0.3c-0.1,0-0.2,0-0.3-0.1c-0.6-0.1-1.1-0.3-1.7-0.4
	c-0.1,0-0.2-0.1-0.3-0.1c-0.6-0.2-1.1-0.4-1.6-0.6c-0.1,0-0.1-0.1-0.2-0.1c-1.7-0.8-3.4-1.7-4.8-2.9c0,0,0,0,0,0
	c-0.5-0.4-0.9-0.8-1.4-1.3c0,0,0,0,0,0c-3.6-3.6-5.8-8.6-5.8-14.1c0-11,9-20,20-20s20,9,20,20S351,152.1,340,152.1z"/>
</svg>
