<?xml version="1.0" encoding="utf-8"?>
<!-- Generator: Adobe Illustrator 26.5.0, SVG Export Plug-In . SVG Version: 6.00 Build 0)  -->
<svg version="1.1" id="Layer_1" xmlns="http://www.w3.org/2000/svg" xmlns:xlink="http://www.w3.org/1999/xlink" x="0px" y="0px"
	 viewBox="0 0 24 24" style="enable-background:new 0 0 24 24;" xml:space="preserve">
<style type="text/css">
	.st0{fill:none;stroke:#B5B5B5;stroke-width:1.5;}
</style>
<path class="st0" d="M5,3.6C5,3.3,5.3,3,5.6,3h12.7C18.7,3,19,3.3,19,3.6L18,20.4c0,0.3-0.3,0.6-0.6,0.6h-2.9
	c-0.3,0-0.6-0.2-0.6-0.5L12.6,9.1c-0.1-0.7-1.1-0.7-1.2,0l-1.3,11.4c0,0.3-0.3,0.5-0.6,0.5H6.6C6.2,21,6,20.8,6,20.4L5,3.6z"/>
<path class="st0" d="M5,7.5h1.5c1.1,0,2-0.9,2-2V3"/>
<path class="st0" d="M18.5,7.5h-1c-1.1,0-2-0.9-2-2V3"/>
</svg>
