<?xml version="1.0" encoding="utf-8"?>
<!-- Generator: Adobe Illustrator 26.5.0, SVG Export Plug-In . SVG Version: 6.00 Build 0)  -->
<svg version="1.1" id="Capa_1" xmlns="http://www.w3.org/2000/svg" xmlns:xlink="http://www.w3.org/1999/xlink" x="0px" y="0px"
	 viewBox="0 0 372 372" style="enable-background:new 0 0 372 372;" xml:space="preserve">
<style type="text/css">
	.st0{fill:#B5B5B5;}
</style>
<g>
	<path class="st0" d="M372,111.4c0-41.3-31.3-79.4-83.7-102c-2.3-1-5-0.1-6.3,2.1c-1.3,2.2-0.7,5,1.4,6.5
		c25.9,19.2,40.2,44.7,40.2,71.8c0,37.9-27.3,110.9-66.7,156.1c-13.1,1.5-24.3,10.2-29,22.5c-7,0.9-13.6,3.8-19.1,8.3
		c-6.6-3.7-14.2-5.8-22.3-5.8c-8.3,0-16.1,2.2-22.8,6.1c-5.5-4.7-12.2-7.6-19.4-8.6c-4.7-12.3-15.9-21-29-22.5
		C75.8,200.7,48.5,127.7,48.5,89.8c0-27,14.2-52.4,40-71.6c1.3-0.9,2.2-2.4,2.2-4.1c0-2.8-2.2-5-5-5c0,0,0,0,0,0s0,0,0,0
		c0,0,0,0,0,0c0,0,0,0,0,0c0,0,0,0,0,0c0,0,0,0,0,0c0,0,0,0,0,0c0,0,0,0,0,0c0,0,0,0,0,0s0,0,0,0c0,0,0,0,0,0c0,0,0,0,0,0
		c0,0,0,0,0,0c0,0,0,0,0,0c0,0,0,0,0,0c0,0,0,0,0,0s0,0,0,0s0,0,0,0c0,0,0,0,0,0c0,0,0,0,0,0c0,0,0,0,0,0c0,0,0,0,0,0s0,0,0,0
		s0,0,0,0c0,0,0,0,0,0c0,0,0,0,0,0c0,0,0,0,0,0c0,0,0,0,0,0c0,0,0,0,0,0c0,0,0,0,0,0c0,0,0,0,0,0c0,0,0,0,0,0c0,0,0,0,0,0
		c0,0,0,0,0,0c0,0,0,0,0,0c0,0,0,0,0,0c0,0,0,0,0,0c0,0,0,0,0,0s0,0,0,0c0,0,0,0,0,0c0,0,0,0,0,0s0,0,0,0c0,0,0,0,0,0c0,0,0,0,0,0
		c0,0,0,0,0,0c0,0,0,0,0,0c0,0,0,0,0,0c0,0,0,0,0,0c0,0,0,0,0,0c0,0,0,0,0,0c0,0,0,0,0,0c0,0,0,0,0,0c0,0,0,0,0,0s0,0,0,0
		c0,0,0,0,0,0c0,0,0,0,0,0c0,0,0,0,0,0c0,0,0,0,0,0c0,0,0,0,0,0c0,0,0,0,0,0l0,0c0,0,0,0,0,0l0,0c-0.4,0.1-0.8,0.2-1.2,0.3
		C31.3,32,0,70.2,0,111.4c0,20.4,7.7,49.4,21.2,79.5c14.2,31.8,33.7,62.4,54.9,86.4c-0.1,1.2-0.2,2.5-0.2,3.7
		c0,16.2,11.3,30.4,26.7,34.3c4.2,16.7,19.1,28.4,36.7,28.4c3.1,0,6.1-0.4,9.1-1.1c8.3,12.2,22.3,20.3,38.1,20.3
		c15.8,0,29.7-8,38-20.1c2.7,0.6,5.5,0.9,8.3,0.9c17.5,0,32.4-11.8,36.7-28.4c15.5-3.9,26.7-18,26.7-34.3c0-1.3-0.1-2.5-0.2-3.7
		c21.1-23.9,40.5-54.3,54.7-85.9C364.2,161.1,372,132,372,111.4z M10,111.4c0-28.6,17.2-55.7,47.2-76.2C45,51.7,38.5,70.4,38.5,89.8
		c0,38.9,25.6,109.2,64.3,156.9c-10.4,2.5-18.9,9.6-23.5,19.1C36.4,214.9,10,147.1,10,111.4z M85.9,281.1c0-14,11.4-25.3,25.3-25.3
		c9.3,0,17.6,5.1,22.1,12.9c-17.5,2.8-31.1,17.7-31.8,35.9C92.3,300.6,85.9,291.4,85.9,281.1z M139.3,333.8
		c-13.8,0-25.4-9.9-27.5-23.5c-0.2-1.5-0.3-2.9-0.3-4.4c0-15.4,12.5-27.8,27.8-27.8c0.4,0,0.7,0,1.1,0c5.4,0.2,10.6,2,14.9,5
		c-9.1,8.4-14.8,20.4-14.8,33.8c0,5.8,1.1,11.4,3.1,16.5C142.1,333.7,140.7,333.8,139.3,333.8z M186.4,353c-19.9,0-36-16.1-36-36
		s16.1-36,36-36s36,16.1,36,36S206.3,353,186.4,353z M260.2,310.3c-2.1,13.6-13.7,23.5-27.5,23.5c-1.1,0-2.3-0.1-3.4-0.2
		c2-5.2,3.1-10.8,3.1-16.6c0-13.5-5.9-25.7-15.2-34.1c4.2-2.9,9.2-4.5,14.4-4.7c0.4,0,0.7,0,1.1,0c15.4,0,27.8,12.5,27.8,27.8
		C260.6,307.4,260.5,308.9,260.2,310.3z M270.5,304.5c-0.7-18.1-14.3-33.1-31.8-35.9c4.4-7.8,12.8-12.9,22.1-12.9
		c14,0,25.3,11.4,25.3,25.3C286.1,291.4,279.7,300.6,270.5,304.5z M269.2,246.8c38.7-47.7,64.3-118,64.3-156.9
		c0-19.5-6.5-38.1-18.7-54.6c30,20.5,47.2,47.6,47.2,76.2c0,35.8-26.3,103.4-69.3,154.4C288.1,256.4,279.5,249.3,269.2,246.8z"/>
	<path class="st0" d="M186.4,290c-14.8,0-26.9,12.1-26.9,26.9s12.1,26.9,26.9,26.9s26.9-12.1,26.9-26.9S201.3,290,186.4,290z
		 M186.4,333.9c-9.3,0-16.9-7.6-16.9-16.9s7.6-16.9,16.9-16.9c9.3,0,16.9,7.6,16.9,16.9C203.4,326.3,195.8,333.9,186.4,333.9z"/>
</g>
</svg>
