<?xml version="1.0" encoding="utf-8"?>
<!-- Generator: Adobe Illustrator 26.5.0, SVG Export Plug-In . SVG Version: 6.00 Build 0)  -->
<svg version="1.1" id="Layer_1" xmlns="http://www.w3.org/2000/svg" xmlns:xlink="http://www.w3.org/1999/xlink" x="0px" y="0px"
	 viewBox="0 0 512 512" style="enable-background:new 0 0 512 512;" xml:space="preserve">
<style type="text/css">
	.st0{fill:#B5B5B5;}
</style>
<g>
	<g>
		<g>
			<path class="st0" d="M205,205.4c-11.1,0-20.1,9.1-20.1,20.4s9,20.4,20.1,20.4c11.1,0,20.1-9.1,20.1-20.4
				C225.1,214.5,216.1,205.4,205,205.4z"/>
			<path class="st0" d="M306.9,205.2c-11.2,0-20.3,9.2-20.3,20.6s9.1,20.6,20.3,20.6c11.2,0,20.3-9.2,20.3-20.6
				S318,205.2,306.9,205.2z"/>
			<path class="st0" d="M462.5,73.7c-9-33.9-24.1-56-24.7-56.9L426.3,0l-72.9,84.8c-34.4-10.5-70.8-12-97.4-12s-63,1.5-97.4,12
				L85.7,0L74.2,16.7c-0.6,0.9-15.7,23-24.7,56.9c-11.5,43.6-7.8,87.2,10.8,126.4c-0.6,5.9-0.9,12.1-0.9,18.4
				c0,45,10.4,72.7,23.6,107.8c4.4,11.8,9,24.1,13.8,38.4c12.2,36.7,26.9,74.5,51.9,102.5c26.9,30.2,62,44.8,107.4,44.8
				s80.6-14.7,107.4-44.8c24.9-28,39.7-65.8,51.9-102.5c4.8-14.3,9.3-26.5,13.8-38.4c13.2-35.1,23.6-62.8,23.6-107.8
				c0-6.3-0.3-12.4-0.9-18.4C470.3,160.9,474.1,117.3,462.5,73.7z M80.1,140c-1.4,2.2-2.7,4.5-4,6.8c-3.4-20.6-2.2-42,3.5-64
				c3-11.7,6.9-21.8,10.5-29.6l37.9,44.1C107.6,108,91.5,122.3,80.1,140z M256,384.4c-4.3,0-13.1-4.4-21.6-12.9
				c-8.5-8.5-13-17.5-13-22c0-4.1,0.8-4.6,3.5-5.8c7.2-3,21.2-3.4,31.1-3.4c9.9,0,23.9,0.3,31.1,3.4c2.7,1.1,3.5,1.7,3.5,5.8
				c0,4.5-4.5,13.5-13,22C269.1,380,260.3,384.4,256,384.4z M399.7,315.3c-4.3,11.5-9.2,24.6-14.2,39.5
				c-25.1,75.5-51.5,119.1-113.8,125.1v-67.2c12.8-4.9,23.3-14.2,28.1-19c6.7-6.7,22.2-24.3,22.2-44.2c0-16.4-7.8-28.4-22.7-34.7
				c-9.8-4.1-22.4-5.8-43.2-5.8s-33.4,1.7-43.2,5.8c-14.8,6.3-22.7,18.3-22.7,34.7c0,19.9,15.5,37.6,22.2,44.2
				c4.8,4.8,15.3,14.2,28.1,19v67.2c-62.3-6-88.7-49.5-113.8-125.1c-4.9-14.9-9.9-28-14.2-39.5c-12.5-33.4-21.6-57.5-21.6-96.8
				c0-45.9,18-77,54.9-95.1c26.5-12.9,62.5-19.2,110.3-19.2s83.9,6.3,110.3,19.2c37,18.1,54.9,49.2,54.9,95.1
				C421.3,257.8,412.2,281.9,399.7,315.3z M435.9,146.7c-1.3-2.3-2.6-4.5-4-6.7c-11.4-17.7-27.5-32.1-47.8-42.8L422,53.1
				C431,73.1,442.1,107.4,435.9,146.7z"/>
		</g>
	</g>
</g>
</svg>
