<?xml version="1.0" encoding="utf-8"?>
<!-- Generator: Adobe Illustrator 26.5.0, SVG Export Plug-In . SVG Version: 6.00 Build 0)  -->
<svg version="1.1" id="Capa_1" xmlns="http://www.w3.org/2000/svg" xmlns:xlink="http://www.w3.org/1999/xlink" x="0px" y="0px"
	 viewBox="0 0 470 470" style="enable-background:new 0 0 470 470;" xml:space="preserve">
<style type="text/css">
	.st0{fill:#B5B5B5;}
</style>
<g>
	<path class="st0" d="M262.4,448.6C262.3,448.9,262.5,448.3,262.4,448.6L262.4,448.6z"/>
	<path class="st0" d="M207.6,448.6C207.5,448.3,207.7,448.9,207.6,448.6L207.6,448.6z"/>
	<path class="st0" d="M317.6,142.5h-49.5v-23.7c9.1-8.7,14.5-21,14.5-34.2c0-23.7-17.4-43.4-40.1-47V7.5c0-4.1-3.4-7.5-7.5-7.5
		s-7.5,3.4-7.5,7.5v30.1c-22.7,3.6-40.1,23.3-40.1,47c0,13.3,5.4,25.5,14.5,34.2v23.7h-49.5c-39.1,0-70.9,31.8-70.9,70.9
		s31.8,70.9,70.9,70.9h49.5v22.1c-11.4,9.6-18.3,24-18.3,39.3c0,4.2,0.5,8.4,1.5,12.4l22.5,90.5C210.8,461.2,222,470,235,470
		s24.2-8.8,27.4-21.4l22.5-90.5c1-4.1,1.5-8.3,1.5-12.4c0-15.3-7-29.7-18.3-39.3v-22.1h49.5c39.1,0,70.9-31.8,70.9-70.9
		S356.7,142.5,317.6,142.5z M301.5,213.4c0,32-12.8,55.9-24.2,55.9h-34.8V157.5h34.8C288.7,157.5,301.5,181.4,301.5,213.4z
		 M216.9,128.6c1.2,0.5,2.4,0.9,3.6,1.3c3.9,1.3,8.2-0.9,9.4-4.9s-0.9-8.2-4.9-9.4c-4-1.3-7.6-3.3-10.8-5.9
		c-0.1-0.1-0.3-0.2-0.5-0.4c-7.1-6-11.4-15-11.4-24.8c0-18,14.6-32.6,32.6-32.6s32.6,14.6,32.6,32.6c0,9.8-4.3,18.7-11.4,24.8
		c-0.2,0.1-0.3,0.2-0.5,0.4c-3.1,2.6-6.7,4.6-10.8,5.9c-3.9,1.3-6.1,5.5-4.9,9.4c1,3.2,4,5.2,7.1,5.2c0.8,0,1.5-0.1,2.3-0.4
		c1.2-0.4,2.4-0.8,3.6-1.3v13.9h-36.2L216.9,128.6L216.9,128.6z M96.5,213.4c0-30.8,25.1-55.9,55.9-55.9h15.7
		c-6.8,9.6-11.6,23.5-13.7,40c-0.5,4.1,2.4,7.9,6.5,8.3c0.3,0,0.6,0.1,0.9,0.1c3.7,0,7-2.8,7.4-6.6c3.2-26.2,14.4-41.8,23.4-41.8
		h34.8v111.8h-34.8c-9,0-20.2-15.6-23.4-41.8c-0.5-4.1-4.2-7-8.3-6.5c-4.1,0.5-7,4.2-6.5,8.3c2,16.5,6.9,30.4,13.7,40h-15.7
		C121.5,269.3,96.5,244.2,96.5,213.4z M253.1,297.6c-3.8-1.3-8,0.6-9.4,4.4c-1.5,3.9,0.5,8.2,4.3,9.7c14,5.4,23.4,19,23.4,34
		c0,3-0.4,5.9-1.1,8.8c-0.2,0.9-22.1,88.8-22.5,90.5c-1.5,5.9-6.8,10-12.9,10s-11.4-4.1-12.9-10c-0.4-1.7-22.3-89.6-22.5-90.5
		c-0.7-2.9-1.1-5.9-1.1-8.8c0-15,9.4-28.7,23.4-34c3.9-1.5,5.8-5.8,4.3-9.7c-1.4-3.8-5.6-5.7-9.4-4.4v-13.3h36.2L253.1,297.6
		L253.1,297.6z M317.6,269.3h-15.8c1.6-2.3,3.1-4.9,4.6-7.7c6.5-13,10.1-30.1,10.1-48.2s-3.6-35.2-10.1-48.2
		c-1.4-2.8-2.9-5.4-4.6-7.7h15.8c30.8,0,55.9,25.1,55.9,55.9S348.5,269.3,317.6,269.3z"/>
</g>
</svg>
