<?xml version="1.0" encoding="utf-8"?>
<!-- Generator: Adobe Illustrator 26.5.0, SVG Export Plug-In . SVG Version: 6.00 Build 0)  -->
<svg version="1.1" id="Layer_1" xmlns="http://www.w3.org/2000/svg" xmlns:xlink="http://www.w3.org/1999/xlink" x="0px" y="0px"
	 viewBox="0 0 512 512" style="enable-background:new 0 0 512 512;" xml:space="preserve">
<style type="text/css">
	.st0{fill:#B5B5B5;}
</style>
<g>
	<g>
		<path class="st0" d="M256,51.9C111,51.9,0,105.5,0,176.4v152.2c0,36.4,28.9,69.3,81.3,92.4c24.7,10.9,53.6,19.2,84.9,24.7
			c8.8,8.9,21,14.4,34.4,14.4h110.7c13.5,0,25.6-5.5,34.4-14.4c31.4-5.4,60.2-13.8,84.9-24.7c52.4-23.1,81.3-55.9,81.3-92.4V176.4
			C512,95.8,380.2,51.9,256,51.9z M152.2,301v99.6c-19.8-4.5-38-10.4-54.2-17.5c-35.4-15.6-56.5-36-56.5-54.4v-82.4
			c11.2,8.3,24.5,15.8,39.8,22.6c21.3,9.4,45.6,16.8,72,22.2C152.6,294.2,152.2,297.6,152.2,301z M318.3,335.6h-44
			c-4.9-4.3-11.3-6.9-18.2-6.9c-15.3,0-27.7,12.4-27.7,27.7S240.7,384,256,384c7,0,13.4-2.6,18.2-6.9h44v30.8
			c-19.9,2.5-40.9,3.8-62.3,3.8s-42.3-1.3-62.3-3.8V301c0-1.2,0.4-2.4,0.9-3.4c19.8,2.3,40.4,3.4,61.3,3.4s41.5-1.2,61.3-3.4
			c0.6,1,0.9,2.2,0.9,3.4V335.6z M325.6,254.7c-4.5-1.4-9.3-2.1-14.2-2.1H200.6c-5,0-9.7,0.8-14.2,2.1c-4.5-0.6-9-1.4-13.4-2.1
			c26.1-4.5,54.1-6.9,83-6.9s56.9,2.4,83,6.9C334.6,253.3,330.1,254,325.6,254.7z M470.5,328.6c0,18.4-21.1,38.8-56.5,54.4
			c-16.1,7.1-34.4,13-54.2,17.5V301c0-3.4-0.4-6.7-1-9.9c26.4-5.4,50.7-12.8,72-22.2c15.3-6.8,28.6-14.3,39.8-22.6V328.6z
			 M415.6,230.1c-44.8-16.8-101-26-159.6-26c-58.5,0-114.8,9.2-159.6,26c-34.4-15.5-54.9-35.5-54.9-53.7c0-43.6,104.1-83,214.5-83
			c109.3,0,214.5,39.8,214.5,83C470.5,194.6,450,214.6,415.6,230.1z"/>
	</g>
</g>
</svg>
